<svg width="48" height="28" viewBox="0 0 48 28" fill="none" xmlns="http://www.w3.org/2000/svg">
<path d="M13.0607 0.939428C12.4749 0.353641 11.5251 0.353641 10.9393 0.939428L1.3934 10.4854C0.807611 11.0712 0.807611 12.0209 1.3934 12.6067C1.97918 13.1925 2.92893 13.1925 3.51472 12.6067L12 4.12141L20.4853 12.6067C21.0711 13.1925 22.0208 13.1925 22.6066 12.6067C23.1924 12.0209 23.1924 11.0712 22.6066 10.4854L13.0607 0.939428ZM13.5 25.9998L13.5 2.00009L10.5 2.00009L10.5 25.9998L13.5 25.9998Z" fill="#09AA23" fill-opacity="0.8"/>
<path d="M34.9393 27.0607C35.5251 27.6464 36.4749 27.6464 37.0607 27.0607L46.6066 17.5147C47.1924 16.9289 47.1924 15.9792 46.6066 15.3934C46.0208 14.8076 45.0711 14.8076 44.4853 15.3934L36 23.8787L27.5147 15.3934C26.9289 14.8076 25.9792 14.8076 25.3934 15.3934C24.8076 15.9792 24.8076 16.9289 25.3934 17.5147L34.9393 27.0607ZM37.5 2.00033C37.5 1.17191 36.8284 0.500334 36 0.500334C35.1716 0.500334 34.5 1.17191 34.5 2.00033L37.5 2.00033ZM37.5 26L37.5 2.00033L34.5 2.00033L34.5 26L37.5 26Z" fill="#EE2B2B" fill-opacity="0.8"/>
</svg>
