<svg width="27" height="20" viewBox="0 0 27 20" fill="none" xmlns="http://www.w3.org/2000/svg">
<path d="M10.4345 10.8692C10.4345 11.1271 10.358 11.3793 10.2147 11.5938C10.0714 11.8083 9.86767 11.9755 9.62933 12.0742C9.39099 12.1729 9.12873 12.1988 8.87572 12.1484C8.6227 12.0981 8.39029 11.9739 8.20788 11.7915C8.02546 11.6091 7.90123 11.3766 7.85091 11.1236C7.80058 10.8706 7.82641 10.6084 7.92513 10.37C8.02385 10.1317 8.19103 9.92797 8.40553 9.78465C8.62003 9.64133 8.87221 9.56483 9.13018 9.56483C9.47611 9.56483 9.80788 9.70225 10.0525 9.94686C10.2971 10.1915 10.4345 10.5232 10.4345 10.8692ZM16.9562 9.56483C16.6982 9.56483 16.446 9.64133 16.2316 9.78465C16.0171 9.92797 15.8499 10.1317 15.7512 10.37C15.6524 10.6084 15.6266 10.8706 15.6769 11.1236C15.7273 11.3766 15.8515 11.6091 16.0339 11.7915C16.2163 11.9739 16.4487 12.0981 16.7017 12.1484C16.9548 12.1988 17.217 12.1729 17.4553 12.0742C17.6937 11.9755 17.8974 11.8083 18.0407 11.5938C18.184 11.3793 18.2605 11.1271 18.2605 10.8692C18.2605 10.5232 18.1231 10.1915 17.8785 9.94686C17.6339 9.70225 17.3021 9.56483 16.9562 9.56483ZM25.0485 16.6191L17.766 19.8484C17.547 19.9458 17.3104 19.9973 17.0708 19.9999C16.8312 20.0025 16.5936 19.956 16.3725 19.8634C16.1515 19.7707 15.9518 19.6339 15.7856 19.4612C15.6194 19.2885 15.4903 19.0837 15.4062 18.8593L14.5247 16.468C14.0377 16.5006 13.5439 16.5173 13.0432 16.518C12.5425 16.5188 12.0486 16.5021 11.5617 16.468L10.6802 18.8593C10.5959 19.0836 10.4667 19.2883 10.3005 19.4609C10.1343 19.6335 9.93462 19.7703 9.71365 19.8629C9.49268 19.9555 9.25512 20.002 9.01553 19.9995C8.77595 19.997 8.5394 19.9456 8.32041 19.8484L1.03786 16.6191C0.661976 16.4548 0.356656 16.1623 0.176304 15.7938C-0.0040483 15.4254 -0.0477157 15.0048 0.0530831 14.6072L3.26066 1.9562C3.34532 1.62719 3.52408 1.33001 3.77505 1.10104C4.02602 0.872074 4.33832 0.721264 4.6737 0.667079L8.59323 0.0225191C9.02532 -0.046978 9.46781 0.0467176 9.83465 0.285384C10.2015 0.524049 10.4664 0.890624 10.578 1.31381L10.9323 2.70945C11.6229 2.64206 12.3265 2.60837 13.0432 2.60837C13.7599 2.60837 14.4627 2.64206 15.1519 2.70945L15.5062 1.31381C15.6175 0.890494 15.8825 0.523769 16.2494 0.285065C16.6162 0.0463606 17.0589 -0.0472308 17.491 0.0225191L21.4127 0.667079C21.7481 0.721264 22.0604 0.872074 22.3113 1.10104C22.5623 1.33001 22.7411 1.62719 22.8257 1.9562L26.0355 14.6061C26.1364 15.0042 26.0926 15.4252 25.9118 15.7939C25.731 16.1626 25.425 16.4551 25.0485 16.6191ZM24.3474 15.03L21.1377 2.39098C21.1377 2.39098 21.1377 2.39098 21.129 2.39098L17.2095 1.73881C17.2067 1.73719 17.2035 1.73633 17.2002 1.73633C17.197 1.73633 17.1938 1.73719 17.191 1.73881L16.8834 2.94967C17.4269 3.05184 17.9703 3.17358 18.4953 3.3214C18.7023 3.37416 18.8826 3.50126 19.0019 3.67846C19.1212 3.85565 19.1711 4.07055 19.142 4.28217C19.113 4.49378 19.0071 4.68732 18.8445 4.82586C18.682 4.9644 18.4741 5.03826 18.2605 5.03335C18.1812 5.03312 18.1022 5.02215 18.0258 5.00074C16.4018 4.56007 14.7259 4.34034 13.0432 4.34748C11.3606 4.33999 9.68463 4.55935 8.06063 4.99965C7.94969 5.03395 7.833 5.04568 7.71745 5.03415C7.60191 5.02262 7.48984 4.98807 7.38787 4.93252C7.28589 4.87698 7.19607 4.80158 7.12371 4.71076C7.05135 4.61994 6.99791 4.51555 6.96655 4.40375C6.93519 4.29195 6.92654 4.17499 6.9411 4.05979C6.95567 3.94459 6.99317 3.83347 7.05138 3.733C7.10958 3.63252 7.18733 3.54472 7.28002 3.47477C7.37271 3.40483 7.47847 3.35416 7.59106 3.32575C8.11497 3.17793 8.6541 3.05619 9.20192 2.95402L8.89431 1.73881C8.89431 1.73881 8.89431 1.73881 8.88127 1.73881L4.95739 2.38337C4.95419 2.38249 4.95081 2.38249 4.94761 2.38337L1.73894 15.0354L9.02149 18.2604C9.02516 18.2624 9.02927 18.2635 9.03344 18.2635C9.03762 18.2635 9.04173 18.2624 9.0454 18.2604L9.78235 16.2735C9.04398 16.1605 8.31298 16.0037 7.59324 15.8039C7.37886 15.7354 7.19939 15.5865 7.09256 15.3884C6.98573 15.1903 6.95985 14.9585 7.02038 14.7418C7.0809 14.525 7.22311 14.3401 7.4171 14.2261C7.6111 14.112 7.84177 14.0775 8.06063 14.13C9.68452 14.5708 11.3605 14.7902 13.0432 14.7822C14.7258 14.7902 16.4019 14.5708 18.0258 14.13C18.2479 14.0677 18.4856 14.0963 18.6867 14.2093C18.8878 14.3223 19.0358 14.5106 19.098 14.7327C19.1603 14.9548 19.1318 15.1926 19.0187 15.3937C18.9057 15.5948 18.7174 15.7427 18.4953 15.805C17.7748 16.0045 17.0431 16.161 16.304 16.2735L17.0377 18.2604C17.0412 18.2623 17.0451 18.2633 17.0491 18.2633C17.0531 18.2633 17.057 18.2623 17.0605 18.2604L24.3474 15.03Z" fill="#344D7F"/>
</svg>
