<svg width="20" height="20" viewBox="0 0 20 20" fill="none" xmlns="http://www.w3.org/2000/svg">
<path d="M18.6846 7.97598L10.6839 0.427336C10.68 0.423923 10.6763 0.420248 10.6729 0.416335C10.3783 0.148445 9.99448 0 9.59632 0C9.19815 0 8.81429 0.148445 8.51972 0.416335L8.50872 0.427336L0.517044 7.97598C0.354028 8.12588 0.223903 8.30799 0.134903 8.51077C0.0459031 8.71356 -3.36457e-05 8.93262 1.84894e-08 9.15408V18.3999C1.84894e-08 18.8242 0.168585 19.2312 0.468669 19.5313C0.768753 19.8314 1.17575 20 1.60014 20H6.40054C6.82493 20 7.23193 19.8314 7.53201 19.5313C7.83209 19.2312 8.00068 18.8242 8.00068 18.3999V13.5995H11.201V18.3999C11.201 18.8242 11.3695 19.2312 11.6696 19.5313C11.9697 19.8314 12.3767 20 12.8011 20H17.6015C18.0259 20 18.4329 19.8314 18.733 19.5313C19.033 19.2312 19.2016 18.8242 19.2016 18.3999V9.15408C19.2017 8.93262 19.1557 8.71356 19.0667 8.51077C18.9777 8.30799 18.8476 8.12588 18.6846 7.97598ZM17.6015 18.3999H12.8011V13.5995C12.8011 13.1751 12.6325 12.7681 12.3324 12.468C12.0323 12.1679 11.6253 11.9993 11.201 11.9993H8.00068C7.5763 11.9993 7.1693 12.1679 6.86921 12.468C6.56913 12.7681 6.40054 13.1751 6.40054 13.5995V18.3999H1.60014V9.15408L1.61114 9.14408L9.60082 1.59844L17.5915 9.14208L17.6025 9.15208L17.6015 18.3999Z" fill="#344D7F"/>
</svg>
