<svg width="20" height="20" viewBox="0 0 20 20" fill="none" xmlns="http://www.w3.org/2000/svg">
<path d="M19.7748 18.6875L14.9656 13.8793C16.3595 12.2058 17.0546 10.0594 16.9062 7.88649C16.7579 5.7136 15.7775 3.68155 14.1691 2.21306C12.5607 0.744569 10.448 -0.0472976 8.27066 0.00218707C6.09327 0.0516718 4.01878 0.938698 2.47874 2.47874C0.938698 4.01878 0.0516718 6.09327 0.00218707 8.27066C-0.0472976 10.448 0.744569 12.5607 2.21306 14.1691C3.68155 15.7775 5.7136 16.7579 7.88649 16.9062C10.0594 17.0546 12.2058 16.3595 13.8793 14.9656L18.6875 19.7748C18.7589 19.8462 18.8437 19.9028 18.937 19.9415C19.0302 19.9801 19.1302 20 19.2312 20C19.3321 20 19.4321 19.9801 19.5254 19.9415C19.6187 19.9028 19.7034 19.8462 19.7748 19.7748C19.8462 19.7034 19.9028 19.6187 19.9415 19.5254C19.9801 19.4321 20 19.3321 20 19.2312C20 19.1302 19.9801 19.0302 19.9415 18.937C19.9028 18.8437 19.8462 18.7589 19.7748 18.6875ZM1.55803 8.47361C1.55803 7.10583 1.96362 5.76878 2.72351 4.63151C3.4834 3.49425 4.56347 2.60787 5.82713 2.08444C7.09078 1.56102 8.48128 1.42407 9.82277 1.69091C11.1643 1.95775 12.3965 2.61639 13.3637 3.58355C14.3308 4.55071 14.9895 5.78295 15.2563 7.12444C15.5231 8.46593 15.3862 9.85643 14.8628 11.1201C14.3393 12.3837 13.453 13.4638 12.3157 14.2237C11.1784 14.9836 9.84138 15.3892 8.47361 15.3892C6.6401 15.3872 4.88228 14.6579 3.5858 13.3614C2.28932 12.0649 1.56006 10.3071 1.55803 8.47361Z" fill="#344D7F"/>
</svg>
