<svg width="24" height="29" viewBox="0 0 24 29" fill="none" xmlns="http://www.w3.org/2000/svg">
<g clip-path="url(#clip0_141_587)">
<path d="M1.12502 8.96248L11.625 15.8625C11.7384 15.937 11.8667 15.9762 11.9972 15.9762C12.1278 15.9762 12.2561 15.937 12.3694 15.8625L22.8694 8.96248C22.9844 8.88711 23.08 8.77808 23.1464 8.64648C23.2129 8.51488 23.248 8.36539 23.248 8.21319C23.248 8.06099 23.2129 7.9115 23.1464 7.77989C23.08 7.64829 22.9844 7.53927 22.8694 7.46389L12.3694 0.56389C12.2561 0.489385 12.1278 0.450195 11.9972 0.450195C11.8667 0.450195 11.7384 0.489385 11.625 0.56389L1.12502 7.46389C1.01004 7.53927 0.914455 7.64829 0.847967 7.77989C0.781479 7.9115 0.746457 8.06099 0.746457 8.21319C0.746457 8.36539 0.781479 8.51488 0.847967 8.64648C0.914455 8.77808 1.01004 8.88711 1.12502 8.96248ZM12 2.30075L20.9878 8.2078L12 14.1148L3.01221 8.2078L12 2.30075ZM23.1506 12.089C23.2009 12.1875 23.2336 12.2965 23.247 12.4097C23.2603 12.5229 23.254 12.6379 23.2284 12.7483C23.2027 12.8586 23.1583 12.962 23.0976 13.0524C23.037 13.1428 22.9613 13.2185 22.875 13.275L12.375 20.175C12.2617 20.2495 12.1334 20.2887 12.0028 20.2887C11.8723 20.2887 11.744 20.2495 11.6306 20.175L1.12502 13.275C1.03915 13.2184 0.963815 13.1428 0.903325 13.0527C0.842835 12.9626 0.798371 12.8597 0.772472 12.7498C0.746573 12.6399 0.739746 12.5253 0.752382 12.4123C0.765017 12.2994 0.796866 12.1905 0.846112 12.0917C0.895358 11.993 0.961035 11.9064 1.03939 11.8368C1.11775 11.7672 1.20726 11.7161 1.3028 11.6863C1.49576 11.6262 1.70159 11.6566 1.87502 11.771L12 18.4273L22.125 11.771C22.2105 11.7143 22.3048 11.6775 22.4027 11.6628C22.5005 11.648 22.6 11.6557 22.6952 11.6852C22.7905 11.7148 22.8798 11.7657 22.9579 11.8349C23.0361 11.9042 23.1016 11.9906 23.1506 12.089Z" fill="#3F729B"/>
</g>
<defs>
<clipPath id="clip0_141_587">
<rect width="24" height="27.6" fill="white" transform="translate(0 0.450195)"/>
</clipPath>
</defs>
</svg>
