<svg width="19" height="19" viewBox="0 0 19 19" fill="none" xmlns="http://www.w3.org/2000/svg">
<path d="M0.750059 3.64508e-09H6.75006C6.86492 -1.13191e-05 6.97824 0.0263566 7.08129 0.0770702C7.18434 0.127784 7.27437 0.201488 7.34443 0.2925L13.3444 8.09344L14.2501 7.18969C14.3894 7.05022 14.5548 6.93958 14.7369 6.8641C14.919 6.78861 15.1142 6.74976 15.3113 6.74976C15.5084 6.74976 15.7036 6.78861 15.8857 6.8641C16.0678 6.93958 16.2333 7.05022 16.3726 7.18969L17.5622 8.38031C17.7016 8.5196 17.8121 8.68498 17.8875 8.86699C17.9629 9.049 18.0017 9.24408 18.0017 9.44109C18.0017 9.63811 17.9629 9.83319 17.8875 10.0152C17.8121 10.1972 17.7016 10.3626 17.5622 10.5019L15.6872 12.3769L18.3122 15.0019C18.4516 15.1412 18.5621 15.3065 18.6375 15.4886C18.7129 15.6706 18.7517 15.8656 18.7517 16.0627C18.7517 16.2597 18.7129 16.4548 18.6375 16.6368C18.5621 16.8188 18.4516 16.9841 18.3122 17.1234L17.1226 18.3122C16.8413 18.5933 16.4599 18.7512 16.0622 18.7512C15.6646 18.7512 15.2832 18.5933 15.0019 18.3122L12.3769 15.6872L10.5019 17.5622C10.3626 17.7017 10.1972 17.8123 10.0151 17.8878C9.833 17.9633 9.63781 18.0021 9.44068 18.0021C9.24356 18.0021 9.04837 17.9633 8.86627 17.8878C8.68418 17.8123 8.51874 17.7017 8.37943 17.5622L7.18975 16.3716C7.05042 16.2323 6.9399 16.0669 6.8645 15.8849C6.7891 15.7029 6.75029 15.5078 6.75029 15.3108C6.75029 15.1138 6.7891 14.9187 6.8645 14.7367C6.9399 14.5547 7.05042 14.3893 7.18975 14.25L8.0935 13.3463L0.292559 7.34625C0.201296 7.276 0.127439 7.18567 0.0767155 7.08227C0.0259914 6.97887 -0.000240326 6.86517 5.91278e-05 6.75V0.75C5.91278e-05 0.551088 0.0790768 0.360322 0.219728 0.21967C0.36038 0.0790178 0.551147 3.64508e-09 0.750059 3.64508e-09ZM16.0604 17.25L17.2501 16.0613L14.6251 13.4363L13.4363 14.625L16.0604 17.25ZM9.44068 16.5L16.5001 9.44156L15.3094 8.25L8.25006 15.3103L9.44068 16.5ZM1.50006 6.38062L9.16318 12.2756L10.1888 11.25L5.46943 6.53063C5.32883 6.38989 5.24989 6.19907 5.24997 6.00014C5.25006 5.8012 5.32917 5.61045 5.4699 5.46984C5.61063 5.32924 5.80146 5.2503 6.00039 5.25038C6.19933 5.25047 6.39008 5.32958 6.53069 5.47031L11.2501 10.1887L12.2747 9.16313L6.38068 1.5H1.50006V6.38062Z" fill="#3F729B"/>
</svg>
