<svg width="150" height="150" viewBox="0 0 150 150" fill="none" xmlns="http://www.w3.org/2000/svg">
<rect width="150" height="150" rx="6" fill="url(#paint0_linear_225_5)" fill-opacity="0.9"/>
<path d="M32.12 68.06V69.54H28.32V82H26.5V69.54H22.68V68.06H32.12ZM44.3603 76.1C44.3603 76.4467 44.3403 76.8133 44.3003 77.2H35.5403C35.607 78.28 35.9736 79.1267 36.6403 79.74C37.3203 80.34 38.1403 80.64 39.1003 80.64C39.887 80.64 40.5403 80.46 41.0603 80.1C41.5936 79.7267 41.967 79.2333 42.1803 78.62H44.1403C43.847 79.6733 43.2603 80.5333 42.3803 81.2C41.5003 81.8533 40.407 82.18 39.1003 82.18C38.0603 82.18 37.127 81.9467 36.3003 81.48C35.487 81.0133 34.847 80.3533 34.3803 79.5C33.9136 78.6333 33.6803 77.6333 33.6803 76.5C33.6803 75.3667 33.907 74.3733 34.3603 73.52C34.8136 72.6667 35.447 72.0133 36.2603 71.56C37.087 71.0933 38.0336 70.86 39.1003 70.86C40.1403 70.86 41.0603 71.0867 41.8603 71.54C42.6603 71.9933 43.2736 72.62 43.7003 73.42C44.1403 74.2067 44.3603 75.1 44.3603 76.1ZM42.4803 75.72C42.4803 75.0267 42.327 74.4333 42.0203 73.94C41.7136 73.4333 41.2936 73.0533 40.7603 72.8C40.2403 72.5333 39.6603 72.4 39.0203 72.4C38.1003 72.4 37.3136 72.6933 36.6603 73.28C36.0203 73.8667 35.6536 74.68 35.5603 75.72H42.4803ZM59.9427 70.84C60.796 70.84 61.556 71.02 62.2227 71.38C62.8893 71.7267 63.416 72.2533 63.8027 72.96C64.1893 73.6667 64.3827 74.5267 64.3827 75.54V82H62.5827V75.8C62.5827 74.7067 62.3093 73.8733 61.7627 73.3C61.2293 72.7133 60.5027 72.42 59.5827 72.42C58.636 72.42 57.8827 72.7267 57.3227 73.34C56.7627 73.94 56.4827 74.8133 56.4827 75.96V82H54.6827V75.8C54.6827 74.7067 54.4093 73.8733 53.8627 73.3C53.3293 72.7133 52.6027 72.42 51.6827 72.42C50.736 72.42 49.9827 72.7267 49.4227 73.34C48.8627 73.94 48.5827 74.8133 48.5827 75.96V82H46.7627V71.04H48.5827V72.62C48.9427 72.0467 49.4227 71.6067 50.0227 71.3C50.636 70.9933 51.3093 70.84 52.0427 70.84C52.9627 70.84 53.776 71.0467 54.4827 71.46C55.1893 71.8733 55.716 72.48 56.0627 73.28C56.3693 72.5067 56.876 71.9067 57.5827 71.48C58.2893 71.0533 59.076 70.84 59.9427 70.84ZM69.1881 73.06C69.5481 72.4333 70.0815 71.9133 70.7881 71.5C71.5081 71.0733 72.3415 70.86 73.2881 70.86C74.2615 70.86 75.1415 71.0933 75.9281 71.56C76.7281 72.0267 77.3548 72.6867 77.8081 73.54C78.2615 74.38 78.4881 75.36 78.4881 76.48C78.4881 77.5867 78.2615 78.5733 77.8081 79.44C77.3548 80.3067 76.7281 80.98 75.9281 81.46C75.1415 81.94 74.2615 82.18 73.2881 82.18C72.3548 82.18 71.5281 81.9733 70.8081 81.56C70.1015 81.1333 69.5615 80.6067 69.1881 79.98V87.2H67.3681V71.04H69.1881V73.06ZM76.6281 76.48C76.6281 75.6533 76.4615 74.9333 76.1281 74.32C75.7948 73.7067 75.3415 73.24 74.7681 72.92C74.2081 72.6 73.5881 72.44 72.9081 72.44C72.2415 72.44 71.6215 72.6067 71.0481 72.94C70.4881 73.26 70.0348 73.7333 69.6881 74.36C69.3548 74.9733 69.1881 75.6867 69.1881 76.5C69.1881 77.3267 69.3548 78.0533 69.6881 78.68C70.0348 79.2933 70.4881 79.7667 71.0481 80.1C71.6215 80.42 72.2415 80.58 72.9081 80.58C73.5881 80.58 74.2081 80.42 74.7681 80.1C75.3415 79.7667 75.7948 79.2933 76.1281 78.68C76.4615 78.0533 76.6281 77.32 76.6281 76.48ZM87.1558 69.26C86.8091 69.26 86.5158 69.14 86.2758 68.9C86.0358 68.66 85.9158 68.3667 85.9158 68.02C85.9158 67.6733 86.0358 67.38 86.2758 67.14C86.5158 66.9 86.8091 66.78 87.1558 66.78C87.4891 66.78 87.7691 66.9 87.9958 67.14C88.2358 67.38 88.3558 67.6733 88.3558 68.02C88.3558 68.3667 88.2358 68.66 87.9958 68.9C87.7691 69.14 87.4891 69.26 87.1558 69.26ZM88.0358 71.04V82H86.2158V71.04H88.0358ZM90.4577 76.5C90.4577 75.3667 90.6843 74.38 91.1377 73.54C91.591 72.6867 92.2177 72.0267 93.0177 71.56C93.831 71.0933 94.7577 70.86 95.7977 70.86C97.1443 70.86 98.251 71.1867 99.1177 71.84C99.9977 72.4933 100.578 73.4 100.858 74.56H98.8977C98.711 73.8933 98.3443 73.3667 97.7977 72.98C97.2643 72.5933 96.5977 72.4 95.7977 72.4C94.7577 72.4 93.9177 72.76 93.2777 73.48C92.6377 74.1867 92.3177 75.1933 92.3177 76.5C92.3177 77.82 92.6377 78.84 93.2777 79.56C93.9177 80.28 94.7577 80.64 95.7977 80.64C96.5977 80.64 97.2643 80.4533 97.7977 80.08C98.331 79.7067 98.6977 79.1733 98.8977 78.48H100.858C100.564 79.6 99.9777 80.5 99.0977 81.18C98.2177 81.8467 97.1177 82.18 95.7977 82.18C94.7577 82.18 93.831 81.9467 93.0177 81.48C92.2177 81.0133 91.591 80.3533 91.1377 79.5C90.6843 78.6467 90.4577 77.6467 90.4577 76.5ZM108.066 82.18C107.039 82.18 106.106 81.9467 105.266 81.48C104.439 81.0133 103.786 80.3533 103.306 79.5C102.839 78.6333 102.606 77.6333 102.606 76.5C102.606 75.38 102.846 74.3933 103.326 73.54C103.819 72.6733 104.486 72.0133 105.326 71.56C106.166 71.0933 107.106 70.86 108.146 70.86C109.186 70.86 110.126 71.0933 110.966 71.56C111.806 72.0133 112.466 72.6667 112.946 73.52C113.439 74.3733 113.686 75.3667 113.686 76.5C113.686 77.6333 113.433 78.6333 112.926 79.5C112.433 80.3533 111.759 81.0133 110.906 81.48C110.053 81.9467 109.106 82.18 108.066 82.18ZM108.066 80.58C108.719 80.58 109.333 80.4267 109.906 80.12C110.479 79.8133 110.939 79.3533 111.286 78.74C111.646 78.1267 111.826 77.38 111.826 76.5C111.826 75.62 111.653 74.8733 111.306 74.26C110.959 73.6467 110.506 73.1933 109.946 72.9C109.386 72.5933 108.779 72.44 108.126 72.44C107.459 72.44 106.846 72.5933 106.286 72.9C105.739 73.1933 105.299 73.6467 104.966 74.26C104.633 74.8733 104.466 75.62 104.466 76.5C104.466 77.3933 104.626 78.1467 104.946 78.76C105.279 79.3733 105.719 79.8333 106.266 80.14C106.813 80.4333 107.413 80.58 108.066 80.58ZM121.419 70.84C122.752 70.84 123.832 71.2467 124.659 72.06C125.486 72.86 125.899 74.02 125.899 75.54V82H124.099V75.8C124.099 74.7067 123.826 73.8733 123.279 73.3C122.732 72.7133 121.986 72.42 121.039 72.42C120.079 72.42 119.312 72.72 118.739 73.32C118.179 73.92 117.899 74.7933 117.899 75.94V82H116.079V71.04H117.899V72.6C118.259 72.04 118.746 71.6067 119.359 71.3C119.986 70.9933 120.672 70.84 121.419 70.84Z" fill="white"/>
<defs>
<linearGradient id="paint0_linear_225_5" x1="39" y1="-2.88427e-06" x2="167.695" y2="96.7629" gradientUnits="userSpaceOnUse">
<stop stop-color="#3F729B"/>
<stop offset="0.732639" stop-color="#3F729B" stop-opacity="0.8"/>
<stop offset="1" stop-color="#3F729B"/>
</linearGradient>
</defs>
</svg>
